<?xml version="1.0" standalone="no"?>
<!DOCTYPE svg PUBLIC "-//W3C//DTD SVG 20010904//EN"
 "http://www.w3.org/TR/2001/REC-SVG-20010904/DTD/svg10.dtd">
<svg version="1.0" xmlns="http://www.w3.org/2000/svg"
 width="300.000000pt" height="300.000000pt" viewBox="0 0 300.000000 300.000000"
 preserveAspectRatio="xMidYMid meet">
<metadata>
Created by potrace 1.11, written by Peter Selinger 2001-2013
</metadata>
<g transform="translate(0.000000,300.000000) scale(0.100000,-0.100000)"
fill="#000000" stroke="none">
<path d="M1420 2061 c0 -5 20 -14 45 -20 26 -6 49 -19 55 -31 6 -11 13 -120
16 -255 l5 -235 -165 0 -166 0 0 114 c0 62 5 127 10 143 12 32 45 53 85 53 13
0 27 5 30 10 4 7 -57 10 -174 10 -100 0 -181 -4 -181 -8 0 -4 11 -9 24 -10 43
-3 76 -21 86 -47 6 -15 10 -79 10 -144 l0 -119 -127 -4 c-175 -6 -223 -33
-223 -124 0 -58 35 -99 103 -119 60 -18 57 -18 57 -5 0 6 -8 10 -19 10 -10 0
-30 11 -45 25 -20 19 -26 33 -26 67 0 87 50 118 190 118 l90 0 -1 -117 c0
-154 -11 -185 -66 -198 -23 -6 -45 -13 -49 -18 -4 -4 72 -7 170 -7 166 0 217
9 128 24 -62 9 -67 22 -70 178 l-4 138 166 0 166 0 -5 -222 c-7 -256 -9 -263
-80 -273 -95 -15 -38 -25 135 -25 173 0 230 10 135 24 -73 11 -75 17 -75 272
l0 222 153 3 c143 4 155 6 209 32 64 31 110 73 135 121 21 40 21 141 1 181
-44 83 -153 135 -283 135 -50 0 -60 -16 -17 -26 113 -27 192 -124 192 -234 0
-59 -17 -97 -60 -134 -45 -37 -95 -47 -221 -44 l-111 3 1 230 c2 262 4 268 76
287 25 7 45 16 45 20 0 4 -79 8 -175 8 -96 0 -175 -4 -175 -9z"/>
</g>
</svg>
